<svg width="40" height="40" viewBox="0 0 40 40" fill="none" xmlns="http://www.w3.org/2000/svg">
<path d="M39.4016 24.8381C36.7301 35.5525 25.877 42.0731 15.1601 39.4012C4.44772 36.7301 -2.07358 25.8775 0.599038 15.1639C3.26931 4.44838 14.1225 -2.07268 24.836 0.598468C35.5521 3.26961 42.073 14.1234 39.4013 24.8383L39.4015 24.8381H39.4016Z" fill="#F3BA2F"/>
<path fill-rule="evenodd" clip-rule="evenodd" d="M20.0023 12.6932L14.8229 17.8721L14.823 17.8718L11.8094 14.8585L20.0023 6.6665L28.1979 14.861L25.1842 17.8743L20.0023 12.6932ZM9.68126 16.986L6.66748 19.9999L9.68105 23.0127L12.6948 19.9992L9.68126 16.986ZM14.8229 22.1279L20.0023 27.3065L25.1841 22.1255L28.1994 25.1372L28.1979 25.1388L20.0023 33.3332L11.8094 25.1412L11.8051 25.1369L14.8229 22.1279ZM30.3236 16.9877L27.3098 20.0012L30.3235 23.0144L33.3372 20.0009L30.3236 16.9877Z" fill="white"/>
<path d="M23.0586 19.9981H23.0599L20.002 16.9404L17.7418 19.1997L17.4822 19.4595L16.9466 19.995L16.9424 19.9992L16.9466 20.0036L20.002 23.059L23.0601 20.0013L23.0616 19.9996L23.0588 19.9981" fill="white"/>
</svg>
