<svg width="40" height="40" viewBox="0 0 40 40" fill="none" xmlns="http://www.w3.org/2000/svg">
<path d="M39.4016 24.8381C36.7301 35.5525 25.877 42.0731 15.1601 39.4012C4.44772 36.7301 -2.07358 25.8775 0.599038 15.1639C3.26931 4.44838 14.1225 -2.07268 24.836 0.598468C35.5521 3.26961 42.073 14.1234 39.4013 24.8383L39.4015 24.8381H39.4016Z" fill="#F7931A"/>
<path fill-rule="evenodd" clip-rule="evenodd" d="M28.8199 17.1506C29.218 14.489 27.1915 13.0583 24.4203 12.1039L25.3193 8.49857L23.1244 7.95171L22.2492 11.4621C21.6722 11.3182 21.0796 11.1826 20.4907 11.0482L21.3721 7.51463L19.1786 6.96777L18.2791 10.5719C17.8016 10.4632 17.3326 10.3558 16.8776 10.2426L16.8801 10.2312L13.8533 9.47547L13.2694 11.8195C13.2694 11.8195 14.8979 12.1928 14.8635 12.2157C15.7524 12.4375 15.9131 13.0258 15.8864 13.4922L14.8624 17.5995C14.9236 17.615 15.003 17.6375 15.0906 17.6727L15.0269 17.6568L15.0268 17.6568C14.9726 17.6432 14.9164 17.6291 14.8586 17.6153L13.4232 23.3691C13.3146 23.6391 13.0389 24.0443 12.4175 23.8904C12.4395 23.9223 10.8222 23.4923 10.8222 23.4923L9.73242 26.0045L12.5887 26.7165C12.9015 26.7949 13.2106 26.8755 13.5166 26.9552L13.5168 26.9553C13.7306 27.011 13.9428 27.0663 14.1536 27.1202L13.2454 30.7669L15.4377 31.3138L16.3372 27.7058C16.9362 27.8684 17.5174 28.0183 18.0864 28.1597L17.19 31.7506L19.385 32.2975L20.2932 28.6577C24.036 29.3659 26.8502 29.0804 28.0348 25.6954C28.9893 22.9701 27.9873 21.3982 26.0182 20.3731C27.4524 20.0423 28.5327 19.0992 28.8207 17.1509L28.82 17.1504L28.8199 17.1506ZM23.805 24.1819C23.1827 26.6822 19.2684 25.6485 17.4776 25.1756C17.3165 25.133 17.1725 25.095 17.0497 25.0645L18.255 20.2333C18.4047 20.2707 18.5876 20.3117 18.7948 20.3582C20.6472 20.7739 24.4426 21.6255 23.8051 24.1819H23.805ZM19.1663 18.1159C20.6594 18.5143 23.9166 19.3835 24.4838 17.111H24.484C25.0632 14.7867 21.8978 14.086 20.3519 13.7437C20.1779 13.7052 20.0245 13.6713 19.8992 13.6401L18.8065 18.0217C18.9096 18.0474 19.0307 18.0797 19.1663 18.1159Z" fill="white"/>
</svg>
