<svg width="322" height="197" viewBox="0 0 322 197" fill="none" xmlns="http://www.w3.org/2000/svg">
<mask id="mask0_2324_32332" style="mask-type:alpha" maskUnits="userSpaceOnUse" x="0" y="0" width="322" height="197">
<rect width="322" height="196.341" rx="12" fill="#011154"/>
</mask>
<g mask="url(#mask0_2324_32332)">
<rect width="322" height="196.341" rx="12" fill="url(#paint0_linear_2324_32332)"/>
<path d="M253.832 214.021C254.454 317.792 60.9412 318.715 -10.2836 243.244C-60.0654 190.494 -99.7495 102.139 -40.6981 60.0241C5.30822 27.2127 80.747 43.8364 144.094 79.2083C203.365 112.304 253.362 135.637 253.832 214.021Z" fill="#6374BD" fill-opacity="0.15"/>
<path d="M312 49.5662L316.2 49.5662L316.2 50.9102C316.2 51.1342 316.145 51.3362 316.035 51.5162C315.927 51.6962 315.78 51.8392 315.594 51.9452C315.41 52.0532 315.203 52.1072 314.973 52.1072C314.741 52.1072 314.532 52.0522 314.346 51.9422C314.16 51.8342 314.013 51.6892 313.905 51.5072C313.797 51.3272 313.743 51.1282 313.743 50.9102L313.743 49.9862L312 49.9862L312 49.5662ZM314.163 49.9862L314.163 50.8772C314.163 51.0252 314.199 51.1602 314.271 51.2822C314.345 51.4062 314.444 51.5042 314.568 51.5762C314.694 51.6502 314.836 51.6872 314.994 51.6872C315.152 51.6872 315.293 51.6502 315.417 51.5762C315.543 51.5042 315.642 51.4062 315.714 51.2822C315.788 51.1602 315.825 51.0252 315.825 50.8772L315.825 49.9862L314.163 49.9862ZM311.922 53.8407C311.922 53.5647 311.993 53.3127 312.135 53.0847C312.277 52.8587 312.467 52.6777 312.705 52.5417C312.945 52.4077 313.21 52.3407 313.5 52.3407C313.72 52.3407 313.925 52.3797 314.115 52.4577C314.307 52.5357 314.475 52.6427 314.619 52.7787C314.765 52.9167 314.879 53.0767 314.961 53.2587C315.043 53.4407 315.084 53.6347 315.084 53.8407C315.084 54.1167 315.013 54.3677 314.871 54.5937C314.729 54.8217 314.538 55.0027 314.298 55.1367C314.058 55.2727 313.792 55.3407 313.5 55.3407C313.282 55.3407 313.078 55.3017 312.888 55.2237C312.698 55.1457 312.53 55.0377 312.384 54.8997C312.24 54.7637 312.127 54.6047 312.045 54.4227C311.963 54.2427 311.922 54.0487 311.922 53.8407ZM312.342 53.8407C312.342 54.0447 312.395 54.2277 312.501 54.3897C312.609 54.5537 312.751 54.6827 312.927 54.7767C313.103 54.8727 313.294 54.9207 313.5 54.9207C313.71 54.9207 313.903 54.8727 314.079 54.7767C314.257 54.6807 314.399 54.5507 314.505 54.3867C314.611 54.2247 314.664 54.0427 314.664 53.8407C314.664 53.6367 314.61 53.4527 314.502 53.2887C314.396 53.1267 314.255 52.9977 314.079 52.9017C313.903 52.8077 313.71 52.7607 313.5 52.7607C313.284 52.7607 313.088 52.8097 312.912 52.9077C312.738 53.0057 312.599 53.1367 312.495 53.3007C312.393 53.4647 312.342 53.6447 312.342 53.8407ZM312 57.0369L312 56.6049L315 55.5999L315 56.0109L312.582 56.8269L315 57.6369L315 58.0809L312.582 58.8909L315 59.7009L315 60.1149L312 59.1099L312 58.6749L314.442 57.8529L312 57.0369ZM311.922 61.8767C311.922 61.6007 311.993 61.3487 312.135 61.1207C312.277 60.8947 312.467 60.7137 312.705 60.5777C312.945 60.4437 313.21 60.3767 313.5 60.3767C313.72 60.3767 313.925 60.4157 314.115 60.4937C314.307 60.5717 314.475 60.6787 314.619 60.8147C314.765 60.9527 314.879 61.1127 314.961 61.2947C315.043 61.4767 315.084 61.6707 315.084 61.8767C315.084 62.0987 315.04 62.3027 314.952 62.4887C314.864 62.6767 314.741 62.8377 314.583 62.9717C314.425 63.1077 314.24 63.2097 314.028 63.2777C313.816 63.3477 313.587 63.3767 313.341 63.3647L313.341 60.8207C313.151 60.8447 312.981 60.9047 312.831 61.0007C312.681 61.0987 312.562 61.2227 312.474 61.3727C312.388 61.5247 312.344 61.6927 312.342 61.8767C312.342 62.0767 312.394 62.2567 312.498 62.4167C312.602 62.5787 312.745 62.7087 312.927 62.8067L312.828 63.2327C312.562 63.1127 312.344 62.9317 312.174 62.6897C312.006 62.4477 311.922 62.1767 311.922 61.8767ZM313.68 60.8087L313.68 62.9417C313.866 62.9277 314.036 62.8707 314.19 62.7707C314.346 62.6727 314.47 62.5457 314.562 62.3897C314.656 62.2337 314.703 62.0627 314.703 61.8767C314.703 61.6907 314.657 61.5207 314.565 61.3667C314.475 61.2127 314.352 61.0867 314.196 60.9887C314.042 60.8907 313.87 60.8307 313.68 60.8087ZM312 63.939L315 63.939L315 64.359L314.586 64.359C314.738 64.465 314.859 64.603 314.949 64.773C315.039 64.943 315.084 65.128 315.084 65.328C315.084 65.444 315.069 65.556 315.039 65.664L314.622 65.493C314.648 65.409 314.661 65.327 314.661 65.247C314.661 65.085 314.621 64.936 314.541 64.8C314.461 64.666 314.354 64.559 314.22 64.479C314.086 64.399 313.937 64.359 313.773 64.359L312 64.359L312 63.939ZM311.922 67.2643C311.922 66.9883 311.993 66.7363 312.135 66.5083C312.277 66.2823 312.467 66.1013 312.705 65.9653C312.945 65.8313 313.21 65.7643 313.5 65.7643C313.72 65.7643 313.925 65.8033 314.115 65.8813C314.307 65.9593 314.475 66.0663 314.619 66.2023C314.765 66.3403 314.879 66.5003 314.961 66.6823C315.043 66.8643 315.084 67.0583 315.084 67.2643C315.084 67.4863 315.04 67.6903 314.952 67.8763C314.864 68.0643 314.741 68.2253 314.583 68.3593C314.425 68.4953 314.24 68.5973 314.028 68.6653C313.816 68.7353 313.587 68.7643 313.341 68.7523L313.341 66.2083C313.151 66.2323 312.981 66.2923 312.831 66.3883C312.681 66.4863 312.562 66.6103 312.474 66.7603C312.388 66.9123 312.344 67.0803 312.342 67.2643C312.342 67.4643 312.394 67.6443 312.498 67.8043C312.602 67.9663 312.745 68.0963 312.927 68.1943L312.828 68.6203C312.562 68.5003 312.344 68.3193 312.174 68.0773C312.006 67.8353 311.922 67.5643 311.922 67.2643ZM313.68 66.1963L313.68 68.3293C313.866 68.3153 314.036 68.2583 314.19 68.1583C314.346 68.0603 314.47 67.9333 314.562 67.7773C314.656 67.6213 314.703 67.4503 314.703 67.2643C314.703 67.0783 314.657 66.9083 314.565 66.7543C314.475 66.6003 314.352 66.4743 314.196 66.3763C314.042 66.2783 313.87 66.2183 313.68 66.1963ZM316.5 71.7663L316.5 72.1863L312 72.1863L312 71.7663L312.561 71.7663C312.369 71.6623 312.214 71.5193 312.096 71.3373C311.98 71.1573 311.922 70.9433 311.922 70.6953C311.922 70.4773 311.963 70.2733 312.045 70.0833C312.127 69.8933 312.24 69.7253 312.384 69.5793C312.53 69.4353 312.698 69.3223 312.888 69.2403C313.078 69.1583 313.282 69.1173 313.5 69.1173C313.718 69.1173 313.922 69.1583 314.112 69.2403C314.304 69.3223 314.472 69.4353 314.616 69.5793C314.762 69.7253 314.876 69.8933 314.958 70.0833C315.04 70.2733 315.081 70.4773 315.081 70.6953C315.081 70.9433 315.022 71.1573 314.904 71.3373C314.788 71.5193 314.635 71.6623 314.445 71.7663L316.5 71.7663ZM312.33 70.6983C312.33 70.9123 312.382 71.0963 312.486 71.2503C312.592 71.4043 312.734 71.5223 312.912 71.6043C313.09 71.6883 313.286 71.7303 313.5 71.7303C313.72 71.7303 313.918 71.6883 314.094 71.6043C314.272 71.5203 314.413 71.4013 314.517 71.2473C314.621 71.0933 314.673 70.9103 314.673 70.6983C314.673 70.4863 314.62 70.2933 314.514 70.1193C314.41 69.9453 314.269 69.8063 314.091 69.7023C313.913 69.5983 313.716 69.5463 313.5 69.5463C313.282 69.5463 313.084 69.5993 312.906 69.7053C312.73 69.8113 312.59 69.9513 312.486 70.1253C312.382 70.3013 312.33 70.4923 312.33 70.6983ZM315.084 75.956C315.084 76.248 315.013 76.513 314.871 76.751C314.729 76.991 314.538 77.182 314.298 77.324C314.06 77.466 313.795 77.537 313.503 77.537C313.285 77.537 313.08 77.496 312.888 77.414C312.698 77.332 312.53 77.218 312.384 77.072C312.24 76.928 312.127 76.76 312.045 76.568C311.963 76.378 311.922 76.174 311.922 75.956C311.922 75.708 311.981 75.494 312.099 75.314C312.217 75.134 312.371 74.992 312.561 74.888L312 74.888L312 74.468L316.5 74.468L316.5 74.888L314.445 74.888C314.635 74.992 314.789 75.134 314.907 75.314C315.025 75.494 315.084 75.708 315.084 75.956ZM312.333 75.953C312.333 76.167 312.385 76.361 312.489 76.535C312.595 76.709 312.737 76.848 312.915 76.952C313.093 77.056 313.289 77.108 313.503 77.108C313.723 77.108 313.921 77.055 314.097 76.949C314.275 76.843 314.416 76.702 314.52 76.526C314.624 76.352 314.676 76.161 314.676 75.953C314.676 75.741 314.623 75.557 314.517 75.401C314.411 75.247 314.269 75.128 314.091 75.044C313.913 74.962 313.717 74.921 313.503 74.921C313.285 74.921 313.087 74.963 312.909 75.047C312.733 75.131 312.593 75.25 312.489 75.404C312.385 75.56 312.333 75.743 312.333 75.953ZM315 80.0108L315 80.4548L310.5 78.8138L310.5 78.3668L312 78.9128L315 77.8358L315 78.2948L312.579 79.1228L315 80.0108ZM312 82.6168L316.2 82.6168L316.2 83.0728L312.759 85.2898L316.2 85.2898L316.2 85.7098L312 85.7098L312 85.2568L315.441 83.0368L312 83.0368L312 82.6168ZM315 88.9338L315 89.3538L312 89.3538L312 88.9338L312.558 88.9188C312.368 88.8208 312.214 88.6838 312.096 88.5078C311.98 88.3318 311.922 88.1218 311.922 87.8778C311.922 87.6578 311.963 87.4518 312.045 87.2598C312.129 87.0678 312.244 86.8988 312.39 86.7528C312.536 86.6068 312.705 86.4928 312.897 86.4108C313.089 86.3288 313.295 86.2878 313.515 86.2878C313.731 86.2878 313.934 86.3278 314.124 86.4078C314.314 86.4898 314.481 86.6018 314.625 86.7438C314.769 86.8878 314.881 87.0538 314.961 87.2418C315.043 87.4318 315.084 87.6348 315.084 87.8508C315.084 88.1008 315.024 88.3188 314.904 88.5048C314.786 88.6908 314.631 88.8388 314.439 88.9488L315 88.9338ZM312.33 87.8688C312.33 88.0828 312.382 88.2668 312.486 88.4208C312.592 88.5748 312.734 88.6928 312.912 88.7748C313.09 88.8588 313.286 88.9008 313.5 88.9008C313.72 88.9008 313.918 88.8588 314.094 88.7748C314.272 88.6908 314.413 88.5718 314.517 88.4178C314.621 88.2638 314.673 88.0808 314.673 87.8688C314.673 87.6568 314.62 87.4628 314.514 87.2868C314.41 87.1128 314.269 86.9738 314.091 86.8698C313.913 86.7678 313.716 86.7168 313.5 86.7168C313.282 86.7168 313.084 86.7698 312.906 86.8758C312.73 86.9818 312.59 87.1218 312.486 87.2958C312.382 87.4718 312.33 87.6628 312.33 87.8688ZM312 91.4045L312 90.8705L315.009 89.7755L315.009 90.2225L312.492 91.1375L315.009 92.0525L315.009 92.4995L312 91.4045ZM315 95.4054L315 95.8254L312 95.8254L312 95.4054L312.558 95.3904C312.368 95.2924 312.214 95.1554 312.096 94.9794C311.98 94.8034 311.922 94.5934 311.922 94.3494C311.922 94.1294 311.963 93.9234 312.045 93.7314C312.129 93.5394 312.244 93.3704 312.39 93.2244C312.536 93.0784 312.705 92.9644 312.897 92.8824C313.089 92.8004 313.295 92.7594 313.515 92.7594C313.731 92.7594 313.934 92.7994 314.124 92.8794C314.314 92.9614 314.481 93.0734 314.625 93.2154C314.769 93.3594 314.881 93.5254 314.961 93.7134C315.043 93.9034 315.084 94.1064 315.084 94.3224C315.084 94.5724 315.024 94.7904 314.904 94.9764C314.786 95.1624 314.631 95.3104 314.439 95.4204L315 95.4054ZM312.33 94.3404C312.33 94.5544 312.382 94.7384 312.486 94.8924C312.592 95.0464 312.734 95.1644 312.912 95.2464C313.09 95.3304 313.286 95.3724 313.5 95.3724C313.72 95.3724 313.918 95.3304 314.094 95.2464C314.272 95.1624 314.413 95.0434 314.517 94.8894C314.621 94.7354 314.673 94.5524 314.673 94.3404C314.673 94.1284 314.62 93.9344 314.514 93.7584C314.41 93.5844 314.269 93.4454 314.091 93.3414C313.913 93.2394 313.716 93.1884 313.5 93.1884C313.282 93.1884 313.084 93.2414 312.906 93.3474C312.73 93.4534 312.59 93.5934 312.486 93.7674C312.382 93.9434 312.33 94.1344 312.33 94.3404ZM312 96.4857L315 96.4857L315 96.9057L314.586 96.9057C314.738 97.0117 314.859 97.1497 314.949 97.3197C315.039 97.4897 315.084 97.6747 315.084 97.8747C315.084 97.9907 315.069 98.1027 315.039 98.2107L314.622 98.0397C314.648 97.9557 314.661 97.8737 314.661 97.7937C314.661 97.6317 314.621 97.4827 314.541 97.3467C314.461 97.2127 314.354 97.1057 314.22 97.0257C314.086 96.9457 313.937 96.9057 313.773 96.9057L312 96.9057L312 96.4857ZM315 100.957L315 101.377L312 101.377L312 100.957L312.558 100.942C312.368 100.844 312.214 100.707 312.096 100.531C311.98 100.355 311.922 100.145 311.922 99.901C311.922 99.681 311.963 99.475 312.045 99.283C312.129 99.091 312.244 98.922 312.39 98.776C312.536 98.63 312.705 98.516 312.897 98.434C313.089 98.352 313.295 98.311 313.515 98.311C313.731 98.311 313.934 98.351 314.124 98.431C314.314 98.513 314.481 98.625 314.625 98.767C314.769 98.911 314.881 99.077 314.961 99.265C315.043 99.455 315.084 99.658 315.084 99.874C315.084 100.124 315.024 100.342 314.904 100.528C314.786 100.714 314.631 100.862 314.439 100.972L315 100.957ZM312.33 99.892C312.33 100.106 312.382 100.29 312.486 100.444C312.592 100.598 312.734 100.716 312.912 100.798C313.09 100.882 313.286 100.924 313.5 100.924C313.72 100.924 313.918 100.882 314.094 100.798C314.272 100.714 314.413 100.595 314.517 100.441C314.621 100.287 314.673 100.104 314.673 99.892C314.673 99.68 314.62 99.486 314.514 99.31C314.41 99.136 314.269 98.997 314.091 98.893C313.913 98.791 313.716 98.74 313.5 98.74C313.282 98.74 313.084 98.793 312.906 98.899C312.73 99.005 312.59 99.145 312.486 99.319C312.382 99.495 312.33 99.686 312.33 99.892ZM312 103.539L316.2 103.539L316.2 103.995L312.759 106.212L316.2 106.212L316.2 106.632L312 106.632L312 106.179L315.441 103.959L312 103.959L312 103.539ZM315 109.856L315 110.276L312 110.276L312 109.856L312.558 109.841C312.368 109.743 312.214 109.606 312.096 109.43C311.98 109.254 311.922 109.044 311.922 108.8C311.922 108.58 311.963 108.374 312.045 108.182C312.129 107.99 312.244 107.821 312.39 107.675C312.536 107.529 312.705 107.415 312.897 107.333C313.089 107.251 313.295 107.21 313.515 107.21C313.731 107.21 313.934 107.25 314.124 107.33C314.314 107.412 314.481 107.524 314.625 107.666C314.769 107.81 314.881 107.976 314.961 108.164C315.043 108.354 315.084 108.557 315.084 108.773C315.084 109.023 315.024 109.241 314.904 109.427C314.786 109.613 314.631 109.761 314.439 109.871L315 109.856ZM312.33 108.791C312.33 109.005 312.382 109.189 312.486 109.343C312.592 109.497 312.734 109.615 312.912 109.697C313.09 109.781 313.286 109.823 313.5 109.823C313.72 109.823 313.918 109.781 314.094 109.697C314.272 109.613 314.413 109.494 314.517 109.34C314.621 109.186 314.673 109.003 314.673 108.791C314.673 108.579 314.62 108.385 314.514 108.209C314.41 108.035 314.269 107.896 314.091 107.792C313.913 107.69 313.716 107.639 313.5 107.639C313.282 107.639 313.084 107.692 312.906 107.798C312.73 107.904 312.59 108.044 312.486 108.218C312.382 108.394 312.33 108.585 312.33 108.791ZM312 110.936L315 110.936L315 111.356L314.586 111.356C314.738 111.464 314.859 111.602 314.949 111.77C315.039 111.938 315.084 112.122 315.084 112.322C315.084 112.548 315.028 112.755 314.916 112.943C314.806 113.131 314.659 113.278 314.475 113.384C314.659 113.49 314.806 113.636 314.916 113.822C315.028 114.008 315.084 114.214 315.084 114.44C315.084 114.666 315.029 114.872 314.919 115.058C314.809 115.244 314.661 115.392 314.475 115.502C314.289 115.612 314.083 115.667 313.857 115.667L312 115.667L312 115.247L313.764 115.247C313.924 115.247 314.072 115.208 314.208 115.13C314.344 115.052 314.453 114.947 314.535 114.815C314.619 114.685 314.661 114.54 314.661 114.38C314.661 114.22 314.622 114.074 314.544 113.942C314.468 113.812 314.362 113.708 314.226 113.63C314.092 113.552 313.938 113.513 313.764 113.513L312 113.513L312 113.093L313.764 113.093C313.938 113.093 314.092 113.054 314.226 112.976C314.362 112.898 314.468 112.793 314.544 112.661C314.622 112.529 314.661 112.383 314.661 112.223C314.661 112.065 314.619 111.92 314.535 111.788C314.453 111.656 314.344 111.551 314.208 111.473C314.072 111.395 313.924 111.356 313.764 111.356L312 111.356L312 110.936ZM311.922 117.59C311.922 117.314 311.993 117.062 312.135 116.834C312.277 116.608 312.467 116.427 312.705 116.291C312.945 116.157 313.21 116.09 313.5 116.09C313.72 116.09 313.925 116.129 314.115 116.207C314.307 116.285 314.475 116.392 314.619 116.528C314.765 116.666 314.879 116.826 314.961 117.008C315.043 117.19 315.084 117.384 315.084 117.59C315.084 117.812 315.04 118.016 314.952 118.202C314.864 118.39 314.741 118.551 314.583 118.685C314.425 118.821 314.24 118.923 314.028 118.991C313.816 119.061 313.587 119.09 313.341 119.078L313.341 116.534C313.151 116.558 312.981 116.618 312.831 116.714C312.681 116.812 312.562 116.936 312.474 117.086C312.388 117.238 312.344 117.406 312.342 117.59C312.342 117.79 312.394 117.97 312.498 118.13C312.602 118.292 312.745 118.422 312.927 118.52L312.828 118.946C312.562 118.826 312.344 118.645 312.174 118.403C312.006 118.161 311.922 117.89 311.922 117.59ZM313.68 116.522L313.68 118.655C313.866 118.641 314.036 118.584 314.19 118.484C314.346 118.386 314.47 118.259 314.562 118.103C314.656 117.947 314.703 117.776 314.703 117.59C314.703 117.404 314.657 117.234 314.565 117.08C314.475 116.926 314.352 116.8 314.196 116.702C314.042 116.604 313.87 116.544 313.68 116.522ZM311.922 122.649C311.922 122.425 311.957 122.208 312.027 121.998C312.097 121.79 312.197 121.608 312.327 121.452C312.457 121.296 312.612 121.186 312.792 121.122L312.939 121.515C312.815 121.559 312.708 121.639 312.618 121.755C312.53 121.873 312.462 122.01 312.414 122.166C312.366 122.324 312.342 122.485 312.342 122.649C312.342 122.841 312.374 123.02 312.438 123.186C312.502 123.352 312.591 123.486 312.705 123.588C312.821 123.69 312.957 123.741 313.113 123.741C313.271 123.741 313.401 123.688 313.503 123.582C313.605 123.476 313.685 123.339 313.743 123.171C313.803 123.005 313.849 122.831 313.881 122.649C313.931 122.363 313.999 122.106 314.085 121.878C314.171 121.652 314.292 121.473 314.448 121.341C314.606 121.209 314.814 121.143 315.072 121.143C315.314 121.143 315.524 121.213 315.702 121.353C315.88 121.493 316.018 121.677 316.116 121.905C316.214 122.135 316.263 122.383 316.263 122.649C316.263 122.867 316.229 123.08 316.161 123.288C316.093 123.496 315.994 123.679 315.864 123.837C315.734 123.997 315.575 124.112 315.387 124.182L315.243 123.783C315.369 123.739 315.476 123.658 315.564 123.54C315.654 123.424 315.722 123.288 315.768 123.132C315.816 122.976 315.84 122.815 315.84 122.649C315.842 122.459 315.81 122.281 315.744 122.115C315.68 121.951 315.59 121.818 315.474 121.716C315.36 121.614 315.226 121.563 315.072 121.563C314.892 121.563 314.753 121.61 314.655 121.704C314.559 121.8 314.487 121.93 314.439 122.094C314.391 122.258 314.348 122.443 314.31 122.649C314.264 122.917 314.192 123.166 314.094 123.396C313.998 123.626 313.869 123.811 313.707 123.951C313.547 124.091 313.349 124.161 313.113 124.161C312.873 124.161 312.663 124.091 312.483 123.951C312.305 123.811 312.167 123.626 312.069 123.396C311.971 123.168 311.922 122.919 311.922 122.649ZM311.922 126.184C311.922 125.908 311.993 125.656 312.135 125.428C312.277 125.202 312.467 125.021 312.705 124.885C312.945 124.751 313.21 124.684 313.5 124.684C313.72 124.684 313.925 124.723 314.115 124.801C314.307 124.879 314.475 124.986 314.619 125.122C314.765 125.26 314.879 125.42 314.961 125.602C315.043 125.784 315.084 125.978 315.084 126.184C315.084 126.406 315.04 126.61 314.952 126.796C314.864 126.984 314.741 127.145 314.583 127.279C314.425 127.415 314.24 127.517 314.028 127.585C313.816 127.655 313.587 127.684 313.341 127.672L313.341 125.128C313.151 125.152 312.981 125.212 312.831 125.308C312.681 125.406 312.562 125.53 312.474 125.68C312.388 125.832 312.344 126 312.342 126.184C312.342 126.384 312.394 126.564 312.498 126.724C312.602 126.886 312.745 127.016 312.927 127.114L312.828 127.54C312.562 127.42 312.344 127.239 312.174 126.997C312.006 126.755 311.922 126.484 311.922 126.184ZM313.68 125.116L313.68 127.249C313.866 127.235 314.036 127.178 314.19 127.078C314.346 126.98 314.47 126.853 314.562 126.697C314.656 126.541 314.703 126.37 314.703 126.184C314.703 125.998 314.657 125.828 314.565 125.674C314.475 125.52 314.352 125.394 314.196 125.296C314.042 125.198 313.87 125.138 313.68 125.116ZM312 128.246L315 128.246L315 128.666L314.586 128.666C314.738 128.772 314.859 128.91 314.949 129.08C315.039 129.25 315.084 129.435 315.084 129.635C315.084 129.751 315.069 129.863 315.039 129.971L314.622 129.8C314.648 129.716 314.661 129.634 314.661 129.554C314.661 129.392 314.621 129.243 314.541 129.107C314.461 128.973 314.354 128.866 314.22 128.786C314.086 128.706 313.937 128.666 313.773 128.666L312 128.666L312 128.246ZM312 131.899L312 131.365L315.009 130.27L315.009 130.717L312.492 131.632L315.009 132.547L315.009 132.994L312 131.899ZM315 133.551L315 133.971L312 133.971L312 133.551L315 133.551ZM315.525 133.764C315.525 133.696 315.547 133.638 315.591 133.59C315.637 133.544 315.694 133.521 315.762 133.521C315.83 133.521 315.886 133.544 315.93 133.59C315.976 133.638 315.999 133.696 315.999 133.764C315.999 133.83 315.976 133.886 315.93 133.932C315.886 133.98 315.83 134.004 315.762 134.004C315.694 134.004 315.637 133.981 315.591 133.935C315.547 133.889 315.525 133.832 315.525 133.764ZM312.753 136.867L312.549 137.242C312.359 137.106 312.207 136.933 312.093 136.723C311.979 136.515 311.922 136.289 311.922 136.045C311.922 135.769 311.993 135.517 312.135 135.289C312.277 135.063 312.467 134.882 312.705 134.746C312.945 134.612 313.21 134.545 313.5 134.545C313.72 134.545 313.925 134.584 314.115 134.662C314.307 134.74 314.475 134.847 314.619 134.983C314.765 135.121 314.879 135.281 314.961 135.463C315.043 135.645 315.084 135.839 315.084 136.045C315.084 136.289 315.027 136.515 314.913 136.723C314.799 136.933 314.646 137.106 314.454 137.242L314.253 136.867C314.385 136.763 314.486 136.638 314.556 136.492C314.628 136.346 314.664 136.197 314.664 136.045C314.664 135.843 314.61 135.66 314.502 135.496C314.396 135.332 314.255 135.202 314.079 135.106C313.903 135.012 313.71 134.965 313.5 134.965C313.29 134.965 313.097 135.013 312.921 135.109C312.745 135.207 312.604 135.338 312.498 135.502C312.394 135.666 312.342 135.847 312.342 136.045C312.342 136.209 312.38 136.363 312.456 136.507C312.532 136.651 312.631 136.771 312.753 136.867ZM311.922 139.122C311.922 138.846 311.993 138.594 312.135 138.366C312.277 138.14 312.467 137.959 312.705 137.823C312.945 137.689 313.21 137.622 313.5 137.622C313.72 137.622 313.925 137.661 314.115 137.739C314.307 137.817 314.475 137.924 314.619 138.06C314.765 138.198 314.879 138.358 314.961 138.54C315.043 138.722 315.084 138.916 315.084 139.122C315.084 139.344 315.04 139.548 314.952 139.734C314.864 139.922 314.741 140.083 314.583 140.217C314.425 140.353 314.24 140.455 314.028 140.523C313.816 140.593 313.587 140.622 313.341 140.61L313.341 138.066C313.151 138.09 312.981 138.15 312.831 138.246C312.681 138.344 312.562 138.468 312.474 138.618C312.388 138.77 312.344 138.938 312.342 139.122C312.342 139.322 312.394 139.502 312.498 139.662C312.602 139.824 312.745 139.954 312.927 140.052L312.828 140.478C312.562 140.358 312.344 140.177 312.174 139.935C312.006 139.693 311.922 139.422 311.922 139.122ZM313.68 138.054L313.68 140.187C313.866 140.173 314.036 140.116 314.19 140.016C314.346 139.918 314.47 139.791 314.562 139.635C314.656 139.479 314.703 139.308 314.703 139.122C314.703 138.936 314.657 138.766 314.565 138.612C314.475 138.458 314.352 138.332 314.196 138.234C314.042 138.136 313.87 138.076 313.68 138.054Z" fill="#8E9BAE"/>
</g>
<g clip-path="url(#clip0_2324_32332)">
<path d="M259.088 48.0675C260.07 50.0602 261.213 51.9575 262.511 53.7513C263.414 52.9963 264.286 52.1972 265.127 51.3566C265.86 50.6236 266.56 49.867 267.228 49.0867C269.891 45.9826 272.042 42.5084 273.64 38.7277C274.99 35.5372 275.906 32.2188 276.381 28.8114C278.48 29.0886 280.518 29.5632 282.476 30.2163C282.477 30.3084 282.477 30.4013 282.477 30.4935C282.477 40.0192 278.446 48.6219 272 54.6824C270.395 56.1924 268.641 57.5435 266.762 58.7127C268.393 60.3303 270.142 61.7914 272 63.0886C273.858 61.7914 275.607 60.3303 277.238 58.7127C277.279 58.6727 277.321 58.6311 277.363 58.5895C281.01 54.9417 283.875 50.6921 285.876 45.9606C287.604 41.8765 288.622 37.5813 288.912 33.1597C288.971 32.2758 289 31.3871 289 30.4935C289 28.8717 288.904 27.2647 288.712 25.6764C288.301 25.4856 287.886 25.3013 287.467 25.1244C285.576 24.3246 283.64 23.6772 281.666 23.1839C280.052 22.7787 278.413 22.477 276.753 22.2805C275.186 22.0938 273.6 22 272 22C271.404 22 270.81 22.013 270.218 22.0391C270.234 22.4444 270.241 22.8512 270.241 23.2605C270.241 25.0755 270.095 26.8578 269.812 28.5945C268.964 33.8348 266.884 38.6673 263.881 42.7857C262.475 44.714 260.866 46.4849 259.088 48.0675Z" fill="white"/>
<path d="M255 30.4937C255 31.3873 255.029 32.276 255.088 33.1599C255.378 37.5815 256.396 41.8767 258.124 45.9608C258.425 46.6742 258.747 47.3771 259.088 48.0677C260.867 46.4851 262.475 44.7142 263.881 42.7859C262.359 38.9823 261.523 34.8338 261.523 30.4937C261.523 30.4015 261.523 30.3086 261.525 30.2165C261.544 27.803 261.822 25.4499 262.334 23.1841C260.36 23.6774 258.424 24.3248 256.533 25.1246C256.114 25.3015 255.699 25.4858 255.288 25.6766C255.096 27.2649 255 28.8719 255 30.4937Z" fill="white"/>
</g>
<defs>
<linearGradient id="paint0_linear_2324_32332" x1="4.92458e-06" y1="-7.85367" x2="366.878" y2="256.927" gradientUnits="userSpaceOnUse">
<stop offset="0.188358" stop-color="#011154"/>
<stop offset="1" stop-color="#011154"/>
</linearGradient>
<clipPath id="clip0_2324_32332">
<rect width="34" height="41.0886" fill="white" transform="matrix(-1 8.74228e-08 8.74228e-08 1 289 22)"/>
</clipPath>
</defs>
</svg>
