<svg width="322" height="197" viewBox="0 0 322 197" fill="none" xmlns="http://www.w3.org/2000/svg">
<mask id="mask0_2303_31218" style="mask-type:alpha" maskUnits="userSpaceOnUse" x="0" y="0" width="322" height="197">
<rect width="322" height="196.341" rx="12" fill="#011154"/>
</mask>
<g mask="url(#mask0_2303_31218)">
<rect width="322" height="196.341" rx="12" fill="url(#paint0_linear_2303_31218)"/>
<path d="M253.832 214.021C254.454 317.792 60.9412 318.715 -10.2836 243.244C-60.0654 190.494 -99.7495 102.139 -40.6981 60.0241C5.30821 27.2127 80.747 43.8364 144.094 79.2083C203.365 112.304 253.362 135.637 253.832 214.021Z" fill="#6374BD" fill-opacity="0.15"/>
</g>
<g clip-path="url(#clip0_2303_31218)">
<path d="M259.088 48.0675C260.07 50.0602 261.213 51.9575 262.511 53.7513C263.414 52.9963 264.286 52.1972 265.127 51.3566C265.86 50.6236 266.56 49.867 267.228 49.0867C269.891 45.9826 272.042 42.5084 273.64 38.7277C274.99 35.5372 275.906 32.2188 276.381 28.8114C278.48 29.0886 280.518 29.5632 282.476 30.2163C282.477 30.3084 282.477 30.4013 282.477 30.4935C282.477 40.0192 278.446 48.6219 272 54.6824C270.395 56.1924 268.641 57.5435 266.762 58.7127C268.393 60.3303 270.142 61.7914 272 63.0886C273.858 61.7914 275.607 60.3303 277.238 58.7127C277.279 58.6727 277.321 58.6311 277.363 58.5895C281.01 54.9417 283.875 50.6921 285.876 45.9606C287.604 41.8765 288.622 37.5813 288.912 33.1597C288.971 32.2758 289 31.3871 289 30.4935C289 28.8717 288.904 27.2647 288.712 25.6764C288.301 25.4856 287.886 25.3013 287.467 25.1244C285.576 24.3246 283.64 23.6772 281.666 23.1839C280.052 22.7787 278.413 22.477 276.753 22.2805C275.186 22.0938 273.6 22 272 22C271.404 22 270.81 22.013 270.218 22.0391C270.234 22.4444 270.241 22.8512 270.241 23.2605C270.241 25.0755 270.095 26.8578 269.812 28.5945C268.964 33.8348 266.884 38.6673 263.881 42.7857C262.475 44.714 260.866 46.4849 259.088 48.0675Z" fill="white"/>
<path d="M255 30.4937C255 31.3873 255.029 32.276 255.088 33.1599C255.378 37.5815 256.396 41.8767 258.124 45.9608C258.425 46.6742 258.747 47.3771 259.088 48.0677C260.867 46.4851 262.475 44.7142 263.881 42.7859C262.359 38.9823 261.523 34.8338 261.523 30.4937C261.523 30.4015 261.523 30.3086 261.525 30.2165C261.544 27.803 261.822 25.4499 262.334 23.1841C260.36 23.6774 258.424 24.3248 256.533 25.1246C256.114 25.3015 255.699 25.4858 255.288 25.6766C255.096 27.2649 255 28.8719 255 30.4937Z" fill="white"/>
</g>
<defs>
<linearGradient id="paint0_linear_2303_31218" x1="4.92458e-06" y1="-7.85367" x2="366.878" y2="256.927" gradientUnits="userSpaceOnUse">
<stop offset="0.188358" stop-color="#011154"/>
<stop offset="1" stop-color="#011154"/>
</linearGradient>
<clipPath id="clip0_2303_31218">
<rect width="34" height="41.0886" fill="white" transform="matrix(-1 8.74228e-08 8.74228e-08 1 289 22)"/>
</clipPath>
</defs>
</svg>
