<svg width="175" height="37" viewBox="0 0 175 37" fill="none" xmlns="http://www.w3.org/2000/svg">
<g clip-path="url(#clip0_2303_31429)">
<path d="M4.45775 23.5072C5.30859 25.2343 6.29934 26.8787 7.42437 28.4334C8.20666 27.779 8.9628 27.0865 9.69138 26.3579C10.3267 25.7226 10.9337 25.0668 11.5125 24.3905C13.8205 21.7002 15.6847 18.689 17.0705 15.4122C18.24 12.647 19.0336 9.77082 19.4456 6.81762C21.2653 7.05789 23.0313 7.46918 24.728 8.03522C24.7294 8.11508 24.7294 8.19564 24.7294 8.27549C24.7294 16.5316 21.2356 23.9877 15.6486 29.2404C14.2579 30.5492 12.7372 31.7201 11.109 32.7335C12.5223 34.1355 14.0381 35.4019 15.6487 36.5262C17.2592 35.4019 18.775 34.1355 20.1883 32.7335C20.2244 32.6989 20.2604 32.6628 20.2964 32.6268C23.4581 29.4651 25.9407 25.7819 27.6755 21.6811C29.173 18.1414 30.0549 14.4186 30.3065 10.5863C30.3574 9.82028 30.3828 9.05001 30.3828 8.27549C30.3828 6.86992 30.2994 5.47706 30.1334 4.10046C29.7772 3.9351 29.4175 3.77539 29.0543 3.62204C27.4155 2.92879 25.7371 2.36769 24.0263 1.94015C22.6271 1.58894 21.2066 1.32747 19.7679 1.15716C18.4096 0.995331 17.0351 0.914064 15.6486 0.914064C15.1321 0.914064 14.6176 0.925371 14.1046 0.947984C14.118 1.2992 14.1243 1.65183 14.1243 2.00658C14.1243 3.57964 13.9971 5.12443 13.7526 6.62965C13.017 11.1714 11.2143 15.3599 8.61158 18.9293C7.39328 20.6006 5.99901 22.1355 4.45775 23.5072Z" fill="url(#paint0_linear_2303_31429)"/>
<path d="M0.915205 8.27577C0.915205 9.05028 0.940645 9.82056 0.991525 10.5866C1.2431 14.4189 2.12503 18.1417 3.62248 21.6814C3.88395 22.2997 4.16308 22.9089 4.45847 23.5074C5.99973 22.1358 7.394 20.6009 8.61231 18.9296C7.29365 15.633 6.5686 12.0374 6.5686 8.27577C6.5686 8.19591 6.5686 8.11535 6.57001 8.0355C6.58697 5.94374 6.82795 3.90428 7.27174 1.94043C5.56088 2.36797 3.88253 2.92907 2.24375 3.62232C1.88052 3.77566 1.52083 3.93537 1.16466 4.10073C0.998593 5.47734 0.915205 6.87019 0.915205 8.27577Z" fill="#0630A2"/>
</g>
<g filter="url(#filter0_d_2303_31429)">
<path d="M64.6968 31.2197H59.8072L48.7359 14.4904V31.2197H43.8463V6.80682H48.7359L59.8072 23.571V6.80682H64.6968V31.2197ZM68.2715 21.4755C68.2715 19.5197 68.6557 17.7851 69.424 16.2716C70.2157 14.7582 71.2751 13.594 72.6022 12.7791C73.9527 11.9642 75.4545 11.5567 77.1076 11.5567C78.5512 11.5567 79.8085 11.8477 80.8796 12.4298C81.9739 13.0119 82.847 13.7453 83.499 14.6301V11.871H88.4235V31.2197H83.499V28.3908C82.8703 29.2988 81.9972 30.0555 80.8796 30.6609C79.7852 31.243 78.5163 31.5341 77.0727 31.5341C75.4428 31.5341 73.9527 31.115 72.6022 30.2767C71.2751 29.4385 70.2157 28.2627 69.424 26.7493C68.6557 25.2125 68.2715 23.4546 68.2715 21.4755ZM83.499 21.5454C83.499 20.3579 83.2662 19.3451 82.8005 18.5069C82.3348 17.6454 81.7061 16.9934 80.9145 16.551C80.1229 16.0854 79.273 15.8525 78.3649 15.8525C77.4569 15.8525 76.6187 16.0737 75.8503 16.5161C75.082 16.9585 74.4533 17.6104 73.9643 18.4719C73.4987 19.3101 73.2658 20.3113 73.2658 21.4755C73.2658 22.6397 73.4987 23.6642 73.9643 24.549C74.4533 25.4105 75.082 26.074 75.8503 26.5397C76.642 27.0054 77.4802 27.2382 78.3649 27.2382C79.273 27.2382 80.1229 27.017 80.9145 26.5746C81.7061 26.109 82.3348 25.457 82.8005 24.6188C83.2662 23.7573 83.499 22.7328 83.499 21.5454ZM101.267 26.7143L106.156 11.871H111.36L104.201 31.2197H98.2632L91.1384 11.871H96.3772L101.267 26.7143ZM112.849 21.4755C112.849 19.5197 113.233 17.7851 114.002 16.2716C114.793 14.7582 115.853 13.594 117.18 12.7791C118.53 11.9642 120.032 11.5567 121.685 11.5567C123.129 11.5567 124.386 11.8477 125.457 12.4298C126.552 13.0119 127.425 13.7453 128.077 14.6301V11.871H133.001V31.2197H128.077V28.3908C127.448 29.2988 126.575 30.0555 125.457 30.6609C124.363 31.243 123.094 31.5341 121.65 31.5341C120.021 31.5341 118.53 31.115 117.18 30.2767C115.853 29.4385 114.793 28.2627 114.002 26.7493C113.233 25.2125 112.849 23.4546 112.849 21.4755ZM128.077 21.5454C128.077 20.3579 127.844 19.3451 127.378 18.5069C126.913 17.6454 126.284 16.9934 125.492 16.551C124.701 16.0854 123.851 15.8525 122.943 15.8525C122.035 15.8525 121.196 16.0737 120.428 16.5161C119.66 16.9585 119.031 17.6104 118.542 18.4719C118.076 19.3101 117.844 20.3113 117.844 21.4755C117.844 22.6397 118.076 23.6642 118.542 24.549C119.031 25.4105 119.66 26.074 120.428 26.5397C121.22 27.0054 122.058 27.2382 122.943 27.2382C123.851 27.2382 124.701 27.017 125.492 26.5746C126.284 26.109 126.913 25.457 127.378 24.6188C127.844 23.7573 128.077 22.7328 128.077 21.5454ZM142.666 14.8746C143.295 13.8501 144.11 13.0468 145.111 12.4647C146.136 11.8827 147.3 11.5916 148.604 11.5916V16.7257H147.311C145.775 16.7257 144.61 17.0866 143.819 17.8083C143.05 18.5301 142.666 19.7875 142.666 21.5803V31.2197H137.777V11.871H142.666V14.8746ZM150.64 21.4755C150.64 19.5197 151.024 17.7851 151.792 16.2716C152.584 14.7582 153.643 13.594 154.97 12.7791C156.321 11.9642 157.823 11.5567 159.476 11.5567C160.919 11.5567 162.177 11.8477 163.248 12.4298C164.342 13.0119 165.215 13.7453 165.867 14.6301V11.871H170.792V31.2197H165.867V28.3908C165.239 29.2988 164.365 30.0555 163.248 30.6609C162.153 31.243 160.884 31.5341 159.441 31.5341C157.811 31.5341 156.321 31.115 154.97 30.2767C153.643 29.4385 152.584 28.2627 151.792 26.7493C151.024 25.2125 150.64 23.4546 150.64 21.4755ZM165.867 21.5454C165.867 20.3579 165.634 19.3451 165.169 18.5069C164.703 17.6454 164.074 16.9934 163.283 16.551C162.491 16.0854 161.641 15.8525 160.733 15.8525C159.825 15.8525 158.987 16.0737 158.218 16.5161C157.45 16.9585 156.821 17.6104 156.333 18.4719C155.867 19.3101 155.634 20.3113 155.634 21.4755C155.634 22.6397 155.867 23.6642 156.333 24.549C156.821 25.4105 157.45 26.074 158.218 26.5397C159.01 27.0054 159.848 27.2382 160.733 27.2382C161.641 27.2382 162.491 27.017 163.283 26.5746C164.074 26.109 164.703 25.457 165.169 24.6188C165.634 23.7573 165.867 22.7328 165.867 21.5454Z" fill="#10192D"/>
</g>
<defs>
<filter id="filter0_d_2303_31429" x="42.2095" y="5.16951" width="132.402" height="30.1846" filterUnits="userSpaceOnUse" color-interpolation-filters="sRGB">
<feFlood flood-opacity="0" result="BackgroundImageFix"/>
<feColorMatrix in="SourceAlpha" type="matrix" values="0 0 0 0 0 0 0 0 0 0 0 0 0 0 0 0 0 0 127 0" result="hardAlpha"/>
<feOffset dx="1.09142" dy="1.09142"/>
<feGaussianBlur stdDeviation="1.36428"/>
<feComposite in2="hardAlpha" operator="out"/>
<feColorMatrix type="matrix" values="0 0 0 0 0 0 0 0 0 0 0 0 0 0 0 0 0 0 0.1 0"/>
<feBlend mode="normal" in2="BackgroundImageFix" result="effect1_dropShadow_2303_31429"/>
<feBlend mode="normal" in="SourceGraphic" in2="effect1_dropShadow_2303_31429" result="shape"/>
</filter>
<linearGradient id="paint0_linear_2303_31429" x1="-1.44678" y1="30.0207" x2="31.8123" y2="7.67699" gradientUnits="userSpaceOnUse">
<stop stop-color="#0630A1"/>
<stop offset="1" stop-color="#1790EA"/>
</linearGradient>
<clipPath id="clip0_2303_31429">
<rect width="29.4683" height="35.6122" fill="white" transform="matrix(-1 8.74228e-08 8.74228e-08 1 30.3828 0.914062)"/>
</clipPath>
</defs>
</svg>
