<svg width="26" height="30" viewBox="0 0 26 30" fill="none" xmlns="http://www.w3.org/2000/svg">
<g clip-path="url(#clip0_2324_32041)">
<path d="M3.48472 19.0326C4.20147 20.4876 5.03609 21.8728 5.98382 23.1825C6.64283 22.6313 7.27981 22.0479 7.89358 21.4341C8.42876 20.8989 8.94013 20.3465 9.42769 19.7768C11.372 17.5104 12.9424 14.9738 14.1098 12.2134C15.095 9.88392 15.7636 7.46101 16.1106 4.97321C17.6435 5.17562 19.1312 5.52209 20.5606 5.99893C20.5617 6.0662 20.5617 6.13406 20.5617 6.20133C20.5617 13.1563 17.6185 19.4374 12.912 23.8624C11.7405 24.9649 10.4594 25.9513 9.08777 26.805C10.2784 27.9861 11.5553 29.0529 12.912 30C14.2687 29.0529 15.5457 27.9861 16.7363 26.805C16.7667 26.7758 16.797 26.7454 16.8274 26.7151C19.4908 24.0517 21.5821 20.9489 23.0436 17.4943C24.3051 14.5124 25.048 11.3764 25.2599 8.14799C25.3028 7.50268 25.3242 6.85379 25.3242 6.20133C25.3242 5.01726 25.254 3.84391 25.1141 2.68425C24.814 2.54495 24.511 2.41041 24.205 2.28122C22.8245 1.69723 21.4107 1.22455 19.9694 0.864389C18.7907 0.568521 17.5941 0.348256 16.3821 0.204787C15.2379 0.0684614 14.08 9.82999e-07 12.912 1.08511e-06C12.4769 1.12315e-06 12.0435 0.0095261 11.6113 0.028576C11.6226 0.324445 11.6279 0.621504 11.6279 0.920349C11.6279 2.24551 11.5208 3.54685 11.3148 4.81486C10.6951 8.64091 9.17647 12.1693 6.98394 15.1762C5.95763 16.5841 4.78309 17.8771 3.48472 19.0326Z" fill="url(#paint0_linear_2324_32041)"/>
<path d="M0.500269 6.2012C0.500269 6.85366 0.5217 7.50255 0.564562 8.14786C0.776493 11.3762 1.51944 14.5123 2.7809 17.4942C3.00116 18.0151 3.23631 18.5283 3.48515 19.0325C4.78352 17.877 5.95806 16.584 6.98438 15.1761C5.87353 12.399 5.26274 9.37003 5.26274 6.2012C5.26274 6.13393 5.26274 6.06607 5.26393 5.9988C5.27822 4.23668 5.48122 2.51862 5.85507 0.864258C4.41383 1.22442 2.99997 1.6971 1.61945 2.28109C1.31346 2.41028 1.01045 2.54482 0.710413 2.68412C0.570516 3.84378 0.500269 5.01713 0.500269 6.2012Z" fill="#0630A2"/>
</g>
<defs>
<linearGradient id="paint0_linear_2324_32041" x1="-1.48931" y1="24.5197" x2="26.5284" y2="5.69716" gradientUnits="userSpaceOnUse">
<stop stop-color="#0630A1"/>
<stop offset="1" stop-color="#1790EA"/>
</linearGradient>
<clipPath id="clip0_2324_32041">
<rect width="24.8244" height="30" fill="white" transform="matrix(-1 8.74228e-08 8.74228e-08 1 25.3242 0)"/>
</clipPath>
</defs>
</svg>
