<svg width="34" height="42" viewBox="0 0 34 42" fill="none" xmlns="http://www.w3.org/2000/svg">
<g clip-path="url(#clip0_2324_32337)">
<path d="M4.08816 26.0675C5.06984 28.0602 6.21295 29.9575 7.51099 31.7513C8.41358 30.9963 9.286 30.1972 10.1266 29.3566C10.8596 28.6236 11.56 27.867 12.2278 27.0867C14.8907 23.9826 17.0416 20.5084 18.6405 16.7277C19.9899 13.5372 20.9055 10.2188 21.3809 6.81142C23.4804 7.08863 25.5179 7.56317 27.4756 8.21626C27.4772 8.30839 27.4772 8.40134 27.4772 8.49348C27.4772 18.0192 23.4461 26.6219 17 32.6824C15.3954 34.1924 13.6408 35.5435 11.7622 36.7127C13.3929 38.3303 15.1418 39.7914 17 41.0886C18.8582 39.7914 20.6071 38.3303 22.2378 36.7127C22.2794 36.6727 22.321 36.6311 22.3625 36.5895C26.0104 32.9417 28.8747 28.6921 30.8764 23.9606C32.6041 19.8765 33.6217 15.5813 33.9119 11.1597C33.9706 10.2758 34 9.3871 34 8.49348C34 6.87175 33.9038 5.2647 33.7122 3.6764C33.3012 3.48561 32.8862 3.30134 32.4671 3.12441C30.5764 2.32456 28.6399 1.67717 26.6659 1.18389C25.0516 0.778658 23.4127 0.476979 21.7527 0.280481C20.1856 0.0937662 18.5997 1.34634e-06 17 1.48619e-06C16.404 1.53829e-06 15.8104 0.0130472 15.2185 0.0391383C15.234 0.444366 15.2413 0.851225 15.2413 1.26053C15.2413 3.07549 15.0945 4.85784 14.8124 6.59453C13.9636 11.8348 11.8837 16.6673 8.88077 20.7857C7.47511 22.714 5.86643 24.4849 4.08816 26.0675Z" fill="white"/>
<path d="M9.12381e-05 8.49367C9.13162e-05 9.3873 0.0294426 10.276 0.088148 11.1599C0.378413 15.5815 1.39597 19.8767 3.12369 23.9608C3.42537 24.6742 3.74743 25.3771 4.08825 26.0677C5.86652 24.4851 7.4752 22.7142 8.88086 20.7859C7.35942 16.9823 6.52287 12.8338 6.52287 8.49367C6.52287 8.40154 6.52287 8.30859 6.5245 8.21646C6.54407 5.80303 6.82211 3.44993 7.33414 1.18408C5.36019 1.67737 3.42374 2.32475 1.53294 3.12461C1.11386 3.30154 0.698844 3.48581 0.287909 3.6766C0.0963024 5.2649 9.10963e-05 6.87195 9.12381e-05 8.49367Z" fill="white"/>
</g>
<defs>
<clipPath id="clip0_2324_32337">
<rect width="34" height="41.0886" fill="white" transform="matrix(-1 8.74228e-08 8.74228e-08 1 34 0)"/>
</clipPath>
</defs>
</svg>
