<svg width="34" height="38" viewBox="0 0 34 38" fill="none" xmlns="http://www.w3.org/2000/svg">
<g clip-path="url(#clip0_2352_32176)">
<path d="M4.34854 15.3398C4.72268 16.1348 5.65803 17.7249 5.65803 17.7249L16.3678 0L5.93864 7.29574C5.33066 7.71664 4.81622 8.27785 4.44208 8.9326C3.45996 10.9436 3.45996 13.282 4.34854 15.3398Z" fill="url(#paint0_linear_2352_32176)"/>
<path d="M0.139941 21.1392C0.373779 24.5532 2.10418 27.7334 4.81669 29.7911L16.3683 37.8352C16.3683 37.8352 9.11931 27.406 3.03953 17.0236C2.43155 15.948 2.01064 14.732 1.82357 13.4693C1.73004 12.9081 1.73004 12.3469 1.82357 11.7856C1.68327 12.0662 1.3559 12.6742 1.3559 12.6742C0.747919 13.937 0.327011 15.2932 0.0931736 16.6962C-0.047129 18.1928 -0.047129 19.6894 0.139941 21.1392Z" fill="#A0A8D4"/>
<path d="M29.6032 22.5419C29.2291 21.7468 28.2938 20.1567 28.2938 20.1567L17.584 37.8349L28.0599 30.5859C28.6679 30.165 29.1823 29.6038 29.5565 28.949C30.4918 26.938 30.5386 24.5997 29.6032 22.5419Z" fill="url(#paint1_linear_2352_32176)"/>
<path d="M33.8592 16.696C33.6254 13.282 31.895 10.1018 29.1824 8.04402L17.6309 0C17.6309 0 24.8798 10.4292 30.9596 20.8116C31.5676 21.8872 31.9885 23.1032 32.1756 24.3659C32.2691 24.9271 32.2691 25.4883 32.1756 26.0495C32.3159 25.7689 32.6432 25.1609 32.6432 25.1609C33.2512 23.8982 33.6721 22.542 33.906 21.1857C33.9995 19.6424 33.9995 18.1926 33.8592 16.696Z" fill="#A0A8D4"/>
<path d="M4.44255 8.9326C4.81669 8.27785 5.28437 7.71664 5.93912 7.29574L16.3683 0L5.65851 17.6781C5.65851 17.6781 4.72316 16.088 4.34902 15.293C3.46044 13.282 3.46044 10.9436 4.44255 8.9326ZM0.139941 21.1389C0.373779 24.553 2.10418 27.7332 4.81669 29.7909L16.3683 37.8349C16.3683 37.8349 9.11931 27.4058 3.03953 17.0234C2.43155 15.9477 2.01064 14.7318 1.82357 13.4691C1.73004 12.9078 1.73004 12.3466 1.82357 11.7854C1.68327 12.066 1.3559 12.674 1.3559 12.674C0.747919 13.9367 0.327011 15.293 0.0931736 16.696C-0.047129 18.1926 -0.047129 19.6891 0.139941 21.1389ZM29.6035 22.542C29.2293 21.7469 28.294 20.1568 28.294 20.1568L17.5842 37.8349L28.0602 30.586C28.6681 30.1651 29.1826 29.6039 29.5567 28.9491C30.4921 26.9381 30.5388 24.5997 29.6035 22.542ZM33.8126 16.7428C33.5787 13.3287 31.8483 10.1486 29.1358 8.09078L17.631 0C17.631 0 24.88 10.4292 30.9597 20.8116C31.5677 21.8872 31.9886 23.1032 32.1757 24.3659C32.2692 24.9271 32.2692 25.4883 32.1757 26.0495C32.316 25.7689 32.6434 25.1609 32.6434 25.1609C33.2514 23.8982 33.6723 22.542 33.9061 21.1857C33.9996 19.6424 33.9996 18.1926 33.8126 16.7428Z" fill="white"/>
</g>
<defs>
<linearGradient id="paint0_linear_2352_32176" x1="16.8549" y1="0.443403" x2="3.11388" y2="15.3397" gradientUnits="userSpaceOnUse">
<stop offset="0.58" stop-color="#A0A8D4"/>
<stop offset="0.73" stop-color="#8791C7"/>
<stop offset="0.91" stop-color="#6470B4"/>
</linearGradient>
<linearGradient id="paint1_linear_2352_32176" x1="17.1437" y1="37.4226" x2="30.8796" y2="22.5369" gradientUnits="userSpaceOnUse">
<stop offset="0.58" stop-color="#A0A8D4"/>
<stop offset="0.73" stop-color="#8791C7"/>
<stop offset="0.91" stop-color="#6470B4"/>
</linearGradient>
<clipPath id="clip0_2352_32176">
<rect width="34" height="37.8349" fill="white"/>
</clipPath>
</defs>
</svg>
