<svg width="40" height="40" viewBox="0 0 40 40" fill="none" xmlns="http://www.w3.org/2000/svg">
<path d="M39.4016 24.8381C36.7301 35.5525 25.877 42.0731 15.1601 39.4012C4.44772 36.7301 -2.07358 25.8775 0.599038 15.1639C3.26931 4.44838 14.1225 -2.07268 24.836 0.598468C35.5521 3.26961 42.073 14.1234 39.4013 24.8383L39.4015 24.8381H39.4016Z" fill="#23292F"/>
<path d="M29.8372 8.3335H33.8736L25.4735 16.6498C22.4315 19.6598 17.4994 19.6598 14.4552 16.6498L6.05176 8.3335H10.0915L16.4734 14.6509C18.4082 16.5576 21.5156 16.5576 23.4504 14.6509L29.8372 8.3335Z" fill="white"/>
<path d="M10.0396 31.4581H6.00049L14.4552 23.0906C17.4972 20.0805 22.4293 20.0805 25.4735 23.0906L33.9282 31.4581H29.8917L23.4553 25.0895C21.5205 23.1828 18.4131 23.1828 16.4783 25.0895L10.0396 31.4581Z" fill="white"/>
</svg>
