<svg width="40" height="40" viewBox="0 0 40 40" fill="none" xmlns="http://www.w3.org/2000/svg">
<circle cx="20" cy="20" r="20" fill="#EDF0F4"/>
<g clip-path="url(#clip0_2321_32425)">
<path d="M17.6278 12.7646C17.3533 12.7254 17.3403 12.7123 17.471 12.6992C17.7193 12.66 18.2945 12.7123 18.6997 12.8038C19.6409 13.026 20.4906 13.6012 21.3925 14.6077L21.6278 14.8822L21.9677 14.8299C23.4187 14.5946 24.9089 14.7776 26.1507 15.3528C26.4906 15.5097 27.0265 15.8234 27.0919 15.9018C27.118 15.928 27.1573 16.0979 27.1834 16.2678C27.2749 16.8822 27.2357 17.3397 27.0396 17.6927C26.935 17.8888 26.935 17.941 27.0004 18.111C27.0527 18.2417 27.2095 18.3332 27.3533 18.3332C27.6671 18.3332 27.9939 17.8365 28.1507 17.1437L28.2161 16.8691L28.3337 16.9999C29.0004 17.745 29.5233 18.7776 29.6017 19.5097L29.6278 19.7057L29.5102 19.5358C29.3141 19.2352 29.1311 19.0391 28.8827 18.8691C28.4383 18.5685 27.9677 18.477 26.7259 18.4116C25.6017 18.3463 24.9612 18.2548 24.3337 18.0456C23.2618 17.6927 22.7128 17.2352 21.4448 15.5489C20.8827 14.8038 20.5298 14.3986 20.1769 14.0587C19.4056 13.3136 18.6344 12.9214 17.6278 12.7646Z" fill="#FF007A"/>
<path d="M27.3661 14.425C27.3922 13.9283 27.4576 13.6015 27.6013 13.3008C27.6536 13.1832 27.7059 13.0786 27.719 13.0786C27.7321 13.0786 27.7059 13.1701 27.6667 13.2747C27.5621 13.5623 27.5491 13.9675 27.6144 14.425C27.7059 15.0133 27.7451 15.0917 28.3726 15.7322C28.6602 16.0329 29 16.4119 29.1308 16.5688L29.353 16.8564L29.1308 16.6472C28.8562 16.3858 28.2288 15.8891 28.085 15.8237C27.9935 15.7714 27.9804 15.7714 27.9151 15.8368C27.8628 15.8891 27.8497 15.9675 27.8497 16.3466C27.8366 16.9348 27.7582 17.3008 27.5621 17.6799C27.4576 17.876 27.4445 17.8368 27.536 17.6146C27.6013 17.4446 27.6144 17.3662 27.6144 16.8041C27.6144 15.6668 27.4837 15.3923 26.6863 14.9348C26.4902 14.8172 26.1504 14.6472 25.9543 14.5557C25.7451 14.4642 25.5883 14.3858 25.6013 14.3858C25.6275 14.3597 26.3987 14.5819 26.6994 14.7126C27.1569 14.8956 27.2353 14.9087 27.2876 14.8956C27.3268 14.8564 27.353 14.7518 27.3661 14.425Z" fill="#FF007A"/>
<path d="M18.1635 16.3726C17.6145 15.6144 17.2615 14.4379 17.34 13.5621L17.3661 13.2876L17.4968 13.3137C17.7321 13.353 18.1374 13.5098 18.3334 13.6275C18.8563 13.9412 19.0916 14.3726 19.3138 15.4445C19.3792 15.7582 19.4707 16.1242 19.5099 16.2418C19.5753 16.4379 19.8236 16.8954 20.0328 17.183C20.1766 17.3922 20.0851 17.4967 19.7583 17.4706C19.2615 17.4183 18.5949 16.9608 18.1635 16.3726Z" fill="#FF007A"/>
<path d="M26.6996 22.0586C24.1113 21.0129 23.1963 20.1109 23.1963 18.5815C23.1963 18.3593 23.2094 18.1763 23.2094 18.1763C23.2224 18.1763 23.3139 18.2547 23.4316 18.3462C23.9545 18.7645 24.5427 18.9475 26.1767 19.1828C27.1309 19.3266 27.6799 19.4312 28.1767 19.6011C29.7584 20.124 30.7388 21.1959 30.9741 22.6469C31.0394 23.0652 31.0002 23.8625 30.8956 24.2808C30.8041 24.6076 30.5427 25.2089 30.4773 25.222C30.4643 25.222 30.4381 25.1567 30.4381 25.0521C30.412 24.5031 30.1375 23.9802 29.6799 23.575C29.1309 23.1044 28.425 22.7514 26.6996 22.0586Z" fill="#FF007A"/>
<path d="M24.8693 22.4902C24.8431 22.2941 24.7778 22.0458 24.7385 21.9412L24.6732 21.7451L24.7908 21.8889C24.9608 22.085 25.0915 22.3203 25.2091 22.6471C25.3006 22.8954 25.3006 22.9739 25.3006 23.3791C25.3006 23.7713 25.2876 23.8628 25.2091 24.085C25.0784 24.4379 24.9215 24.6863 24.6601 24.9608C24.1895 25.4445 23.5751 25.7059 22.6993 25.8235C22.5425 25.8366 22.098 25.8758 21.7059 25.902C20.7255 25.9543 20.0719 26.0588 19.4836 26.268C19.4052 26.2941 19.3268 26.3203 19.3137 26.3072C19.2876 26.2811 19.6928 26.0458 20.0196 25.8889C20.4771 25.6667 20.9477 25.549 21.9804 25.366C22.4902 25.2876 23.013 25.183 23.1438 25.1307C24.4379 24.7255 25.0784 23.719 24.8693 22.4902Z" fill="#FF007A"/>
<path d="M26.0589 24.5946C25.719 23.8495 25.6406 23.1436 25.8236 22.4769C25.8498 22.4116 25.8759 22.3462 25.902 22.3462C25.9282 22.3462 26.0066 22.3854 26.0851 22.4377C26.2419 22.5423 26.5687 22.7253 27.4053 23.1828C28.4641 23.758 29.0654 24.2024 29.4837 24.7122C29.8498 25.1566 30.072 25.6665 30.1766 26.2939C30.2419 26.6468 30.2027 27.4965 30.1112 27.8495C29.8236 28.9606 29.17 29.8495 28.2158 30.3593C28.072 30.4377 27.9543 30.49 27.9413 30.49C27.9282 30.49 27.9805 30.3593 28.0589 30.2024C28.3726 29.5357 28.4119 28.8952 28.1766 28.1763C28.0328 27.7318 27.7321 27.1959 27.1308 26.2939C26.4119 25.2482 26.2419 24.9736 26.0589 24.5946Z" fill="#FF007A"/>
<path d="M16.3204 28.5949C17.2877 27.7844 18.4773 27.2093 19.5753 27.0263C20.0459 26.9478 20.8302 26.974 21.2616 27.0916C21.9544 27.2746 22.5818 27.6668 22.9086 28.1505C23.2224 28.621 23.3662 29.0263 23.51 29.9282C23.5622 30.2812 23.6276 30.6472 23.6407 30.7256C23.7452 31.1962 23.9544 31.5622 24.2158 31.7583C24.6211 32.059 25.3269 32.072 26.0198 31.8106C26.1374 31.7714 26.242 31.7322 26.242 31.7452C26.2681 31.7714 25.9152 32.0067 25.6799 32.1243C25.3531 32.2943 25.0916 32.3465 24.7387 32.3465C24.1113 32.3465 23.5753 32.0197 23.1439 31.3661C23.0524 31.2354 22.8694 30.8563 22.7126 30.5034C22.255 29.4446 22.0198 29.1309 21.4838 28.7779C21.0132 28.4773 20.4119 28.4119 19.9544 28.6341C19.3531 28.9217 19.1962 29.6929 19.6145 30.1635C19.7845 30.3596 20.0982 30.5165 20.3596 30.5557C20.8433 30.621 21.2616 30.242 21.2616 29.7583C21.2616 29.4446 21.1439 29.2616 20.8302 29.1178C20.4119 28.9348 19.9544 29.1439 19.9675 29.5492C19.9675 29.7191 20.0459 29.8237 20.2158 29.9021C20.3204 29.9544 20.3204 29.9544 20.242 29.9413C19.8629 29.8629 19.7714 29.3923 20.072 29.0916C20.4381 28.7256 21.2093 28.8825 21.4707 29.3923C21.5753 29.6014 21.5884 30.0197 21.4969 30.2812C21.2747 30.8563 20.6472 31.157 20.0067 30.9871C19.5753 30.8694 19.3923 30.7518 18.8694 30.2158C17.9544 29.2746 17.6015 29.0916 16.2943 28.8956L16.0459 28.8563L16.3204 28.5949Z" fill="#FF007A"/>
<path fill-rule="evenodd" clip-rule="evenodd" d="M9.44454 7.56209C12.4903 11.2614 17.1831 17.0131 17.4184 17.3268C17.6145 17.5882 17.536 17.8366 17.2092 18.0196C17.0262 18.1242 16.6472 18.2288 16.4641 18.2288C16.255 18.2288 16.0066 18.1242 15.8367 17.9542C15.719 17.8366 15.2092 17.0915 14.0589 15.3007C13.1831 13.9281 12.438 12.7908 12.4249 12.7778C12.3726 12.7516 12.3726 12.7516 13.9674 15.6013C14.9739 17.3922 15.3007 18.0327 15.3007 18.1111C15.3007 18.281 15.2485 18.3725 15.0393 18.6078C14.6864 19 14.5295 19.4444 14.4119 20.3725C14.2811 21.4052 13.9282 22.1373 12.9217 23.3791C12.3334 24.1111 12.2419 24.2418 12.0981 24.5425C11.9151 24.9085 11.8628 25.1176 11.8367 25.5882C11.8106 26.085 11.8628 26.3987 12.0066 26.8693C12.1373 27.2876 12.2811 27.5621 12.6341 28.098C12.9347 28.5686 13.1177 28.9216 13.1177 29.0523C13.1177 29.1569 13.1439 29.1569 13.6145 29.0523C14.7387 28.7908 15.6668 28.3464 16.1766 27.7974C16.4903 27.4575 16.5687 27.2745 16.5687 26.8039C16.5687 26.5033 16.5556 26.4379 16.4772 26.2549C16.3465 25.9673 16.0981 25.732 15.5622 25.366C14.8563 24.8824 14.5556 24.4902 14.4772 23.9673C14.4119 23.5229 14.4903 23.2222 14.8824 22.3987C15.2877 21.549 15.3922 21.1961 15.4576 20.3333C15.4968 19.7843 15.5622 19.5621 15.719 19.3922C15.889 19.2092 16.0328 19.1438 16.438 19.0915C17.1047 19 17.536 18.8301 17.8759 18.5033C18.1766 18.2288 18.3073 17.9542 18.3204 17.549L18.3334 17.2484L18.1635 17.0654C17.5491 16.3595 9.03931 7 9.00009 7C8.98702 7 9.19617 7.24837 9.44454 7.56209ZM13.4576 26.1503C13.6014 25.902 13.523 25.5882 13.2877 25.4314C13.0655 25.2876 12.7256 25.3529 12.7256 25.549C12.7256 25.6013 12.7517 25.6536 12.8302 25.6797C12.9478 25.7451 12.9609 25.8105 12.8694 25.9542C12.7779 26.098 12.7779 26.2288 12.8955 26.3203C13.0785 26.4641 13.3269 26.3856 13.4576 26.1503Z" fill="#FF007A"/>
<path fill-rule="evenodd" clip-rule="evenodd" d="M18.7521 19.2746C18.4383 19.3661 18.1377 19.706 18.0462 20.0459C17.9939 20.255 18.02 20.6341 18.1115 20.7518C18.2553 20.9348 18.386 20.987 18.7521 20.987C19.471 20.987 20.0854 20.6733 20.1508 20.2942C20.2161 19.9805 19.9416 19.5491 19.5625 19.3531C19.3664 19.2485 18.9612 19.2093 18.7521 19.2746ZM19.5887 19.9282C19.6932 19.7714 19.654 19.6014 19.4579 19.4838C19.105 19.2616 18.5691 19.4446 18.5691 19.7844C18.5691 19.9544 18.8436 20.1374 19.105 20.1374C19.2749 20.1374 19.5102 20.0328 19.5887 19.9282Z" fill="#FF007A"/>
</g>
<defs>
<clipPath id="clip0_2321_32425">
<rect width="22" height="25.3333" fill="white" transform="translate(9 7)"/>
</clipPath>
</defs>
</svg>
