<svg width="34" height="31" viewBox="0 0 34 31" fill="none" xmlns="http://www.w3.org/2000/svg">
<g clip-path="url(#clip0_2352_32184)">
<path d="M34 0.876465L33.9712 12.6213L27.5319 15.2081L20.0503 18.2127L12.5999 21.2054L6.46807 23.6672L0 26.266L6.06457 21.7386V21.7362L12.535 16.9061L20.0503 11.2931L27.5319 5.7065L34 0.876465Z" fill="white"/>
<path d="M20.2883 4.03264V20.18C20.2883 22.2576 18.607 23.9388 16.5318 23.9388C14.6896 23.9388 13.1573 22.6154 12.8378 20.8669C12.7946 20.6435 12.773 20.413 12.773 20.18V8.07968L6.23047 11.6055V20.1608C6.23047 20.5811 6.25449 20.9918 6.30252 21.3977C6.37698 22.063 6.51388 22.7067 6.70603 23.3288C8.05584 27.7313 12.1557 30.9305 17.0002 30.9305C22.9495 30.9305 27.7699 26.1101 27.7699 20.1608V0L20.2883 4.03264Z" fill="white"/>
</g>
<defs>
<clipPath id="clip0_2352_32184">
<rect width="34" height="30.9305" fill="white"/>
</clipPath>
</defs>
</svg>
