<svg width="34" height="40" viewBox="0 0 34 40" fill="none" xmlns="http://www.w3.org/2000/svg">
<path d="M17.1299 9.45862L17.1191 0.516602L16.8495 0.516926L16.8602 9.45895L17.1299 9.45862Z" fill="white"/>
<path d="M33.5705 29.0727L25.9795 24.5986L25.8427 24.8314L33.4337 29.3055L33.5705 29.0727Z" fill="white"/>
<path d="M8.19733 24.8324L8.06055 24.5996L0.469502 29.0737L0.606288 29.3065L8.19733 24.8324Z" fill="white"/>
<path d="M16.9813 19.8388C16.9464 19.8388 16.9114 19.8297 16.8801 19.8116L8.00538 14.6778C7.94279 14.6416 7.90427 14.5748 7.9043 14.5024C7.9043 14.4301 7.94285 14.3633 8.0054 14.3271L16.8802 9.19559C16.9429 9.15934 17.0202 9.1594 17.0828 9.19585L25.9457 14.3483C26.0082 14.3846 26.0465 14.4515 26.0464 14.5238C26.0463 14.5961 26.0077 14.6629 25.9452 14.699L17.0822 19.8118C17.051 19.8298 17.0161 19.8388 16.9813 19.8388ZM8.51086 14.5025L16.9814 19.4025L25.4402 14.5228L16.981 9.60498L8.51086 14.5025Z" fill="white"/>
<path d="M16.9813 30.0488C16.9466 30.0488 16.9118 30.0399 16.8807 30.022L8.0173 24.9277C7.95456 24.8916 7.91583 24.8247 7.91575 24.7523L7.9043 14.5025C7.90422 14.4301 7.94274 14.3632 8.00533 14.327C8.06791 14.2907 8.14504 14.2908 8.20767 14.327L17.0824 19.4607C17.145 19.4969 17.1835 19.5638 17.1835 19.6361V29.8463C17.1835 29.9186 17.1451 29.9854 17.0826 30.0216C17.0513 30.0398 17.0163 30.0488 16.9813 30.0488ZM8.32005 24.6347L16.7791 29.4966V19.753L8.30912 14.8534L8.32005 24.6347Z" fill="white"/>
<path d="M16.9805 30.0488C16.9455 30.0488 16.9104 30.0397 16.879 30.0215C16.8167 29.9853 16.7783 29.9185 16.7783 29.8463V19.6362C16.7783 19.5637 16.8169 19.4968 16.8796 19.4607L25.7425 14.3478C25.8051 14.3117 25.8821 14.3118 25.9447 14.348C26.0072 14.3842 26.0456 14.451 26.0456 14.5233V24.7747C26.0456 24.8473 26.0068 24.9144 25.9437 24.9505L17.0808 30.0222C17.0498 30.0399 17.0151 30.0488 16.9805 30.0488ZM17.1827 19.7531V29.4974L25.6413 24.6571V14.8736L17.1827 19.7531Z" fill="white"/>
<path d="M16.9863 39.2864L0 29.4646V9.82204L16.9863 0L33.9732 9.82204V29.4647L16.9863 39.2864ZM0.94323 28.9192L16.9863 38.1957L33.03 28.9192V10.3674L16.9863 1.09077L0.94323 10.3674V28.9192Z" fill="white"/>
<path d="M16.9847 20.2051L0.260991 10.52C0.0355009 10.3894 -0.0415718 10.1005 0.0888263 9.8747C0.219146 9.64888 0.507823 9.57173 0.733182 9.70226L16.9855 19.1143L33.2916 9.70192C33.5172 9.57152 33.8056 9.64928 33.9357 9.87525C34.0658 10.1013 33.9883 10.39 33.7626 10.5203L16.9847 20.2051Z" fill="white"/>
<path d="M17.0146 39.2131C16.7541 39.2131 16.543 39.0017 16.543 38.7409V19.6598C16.543 19.3989 16.7541 19.1875 17.0146 19.1875C17.275 19.1875 17.4862 19.3989 17.4862 19.6598V38.7409C17.4862 39.0017 17.275 39.2131 17.0146 39.2131Z" fill="white"/>
</svg>
