<svg width="20" height="21" viewBox="0 0 20 21" fill="none" xmlns="http://www.w3.org/2000/svg">
<path d="M14 11.4V15.6C14 19.1 12.6 20.5 9.1 20.5H4.9C1.4 20.5 0 19.1 0 15.6V11.4C0 7.9 1.4 6.5 4.9 6.5H9.1C12.6 6.5 14 7.9 14 11.4Z" fill="#8E9BAE"/>
<path d="M15.0998 0.5H10.8998C7.81668 0.5 6.37074 1.59409 6.06951 4.23901C6.00649 4.79235 6.46476 5.25 7.02167 5.25H9.09977C13.2998 5.25 15.2498 7.2 15.2498 11.4V13.4781C15.2498 14.035 15.7074 14.4933 16.2608 14.4303C18.9057 14.129 19.9998 12.6831 19.9998 9.6V5.4C19.9998 1.9 18.5998 0.5 15.0998 0.5Z" fill="#8E9BAE"/>
</svg>
