<svg width="16" height="16" viewBox="0 0 16 16" fill="none" xmlns="http://www.w3.org/2000/svg">
<path d="M12 1.3335H4C2.89333 1.3335 2 2.22016 2 3.3135V10.5868C2 11.6802 2.89333 12.5668 4 12.5668H4.50667C5.04 12.5668 5.54667 12.7735 5.92 13.1468L7.06 14.2735C7.58 14.7868 8.42667 14.7868 8.94667 14.2735L10.0867 13.1468C10.46 12.7735 10.9733 12.5668 11.5 12.5668H12C13.1067 12.5668 14 11.6802 14 10.5868V3.3135C14 2.22016 13.1067 1.3335 12 1.3335ZM8.18667 9.9735C8.08667 10.0068 7.92 10.0068 7.81333 9.9735C6.94667 9.6735 5 8.44016 5 6.34016C5.00667 5.4135 5.74667 4.66683 6.66667 4.66683C7.21333 4.66683 7.69333 4.92683 8 5.3335C8.30667 4.92683 8.78667 4.66683 9.33333 4.66683C10.2533 4.66683 11 5.4135 11 6.34016C10.9933 8.44016 9.05333 9.6735 8.18667 9.9735Z" fill="#1d4ed8"/>
</svg>
