<svg width="25" height="24" viewBox="0 0 25 24" fill="none" xmlns="http://www.w3.org/2000/svg">
<path d="M16.69 2H8.31C4.67 2 2.5 4.17 2.5 7.81V16.18C2.5 19.83 4.67 22 8.31 22H16.68C20.32 22 22.49 19.83 22.49 16.19V7.81C22.5 4.17 20.33 2 16.69 2ZM9.14 7.15C9.43 6.86 9.91 6.86 10.2 7.15L14.58 11.53V9.1C14.58 8.69 14.92 8.35 15.33 8.35C15.74 8.35 16.08 8.69 16.08 9.1V13.34C16.08 13.44 16.06 13.53 16.02 13.63C15.94 13.81 15.8 13.96 15.61 14.04C15.52 14.08 15.42 14.1 15.32 14.1H11.08C10.67 14.1 10.33 13.76 10.33 13.35C10.33 12.94 10.67 12.6 11.08 12.6H13.51L9.14 8.21C8.85 7.92 8.85 7.45 9.14 7.15ZM18.74 17.22C16.73 17.89 14.62 18.23 12.5 18.23C10.38 18.23 8.27 17.89 6.26 17.22C5.87 17.09 5.66 16.66 5.79 16.27C5.92 15.88 6.34 15.66 6.74 15.8C10.46 17.04 14.55 17.04 18.27 15.8C18.66 15.67 19.09 15.88 19.22 16.27C19.34 16.67 19.13 17.09 18.74 17.22Z" fill="#2873FF"/>
</svg>
