<svg width="25" height="25" viewBox="0 0 25 25" fill="none" xmlns="http://www.w3.org/2000/svg">
<path d="M16.69 2.5H8.31C4.67 2.5 2.5 4.67 2.5 8.31V16.68C2.5 20.33 4.67 22.5 8.31 22.5H16.68C20.32 22.5 22.49 20.33 22.49 16.69V8.31C22.5 4.67 20.33 2.5 16.69 2.5ZM9.14 13.31L13.52 8.93H11.09C10.68 8.93 10.34 8.59 10.34 8.18C10.34 7.77 10.68 7.43 11.09 7.43H15.33C15.43 7.43 15.52 7.45 15.62 7.49C15.8 7.57 15.95 7.71 16.03 7.9C16.07 7.99 16.09 8.09 16.09 8.19V12.43C16.09 12.84 15.75 13.18 15.34 13.18C14.93 13.18 14.59 12.84 14.59 12.43V10L10.2 14.37C10.05 14.52 9.86 14.59 9.67 14.59C9.48 14.59 9.29 14.52 9.14 14.37C8.85 14.08 8.85 13.6 9.14 13.31ZM18.74 17.72C16.73 18.39 14.62 18.73 12.5 18.73C10.38 18.73 8.27 18.39 6.26 17.72C5.87 17.59 5.66 17.16 5.79 16.77C5.92 16.38 6.34 16.16 6.74 16.3C10.46 17.54 14.55 17.54 18.27 16.3C18.66 16.17 19.09 16.38 19.22 16.77C19.34 17.17 19.13 17.59 18.74 17.72Z" fill="#8E9BAE"/>
</svg>
