<svg width="25" height="24" viewBox="0 0 25 24" fill="none" xmlns="http://www.w3.org/2000/svg">
<path d="M16.69 2H8.31C4.67 2 2.5 4.17 2.5 7.81V16.18C2.5 19.83 4.67 22 8.31 22H16.68C20.32 22 22.49 19.83 22.49 16.19V7.81C22.5 4.17 20.33 2 16.69 2ZM9.14 12.81L13.52 8.43H11.09C10.68 8.43 10.34 8.09 10.34 7.68C10.34 7.27 10.68 6.93 11.09 6.93H15.33C15.43 6.93 15.52 6.95 15.62 6.99C15.8 7.07 15.95 7.21 16.03 7.4C16.07 7.49 16.09 7.59 16.09 7.69V11.93C16.09 12.34 15.75 12.68 15.34 12.68C14.93 12.68 14.59 12.34 14.59 11.93V9.5L10.2 13.87C10.05 14.02 9.86 14.09 9.67 14.09C9.48 14.09 9.29 14.02 9.14 13.87C8.85 13.58 8.85 13.1 9.14 12.81ZM18.74 17.22C16.73 17.89 14.62 18.23 12.5 18.23C10.38 18.23 8.27 17.89 6.26 17.22C5.87 17.09 5.66 16.66 5.79 16.27C5.92 15.88 6.34 15.66 6.74 15.8C10.46 17.04 14.55 17.04 18.27 15.8C18.66 15.67 19.09 15.88 19.22 16.27C19.34 16.67 19.13 17.09 18.74 17.22Z" fill="#2873FF"/>
</svg>
