<svg width="16" height="16" viewBox="0 0 16 16" fill="none" xmlns="http://www.w3.org/2000/svg">
<path d="M13.5731 8.48672C13.3264 8.48672 13.1197 8.30005 13.0931 8.05338C12.9331 6.58672 12.1464 5.26672 10.9331 4.42672C10.7131 4.27338 10.6597 3.97338 10.8131 3.75338C10.9664 3.53338 11.2664 3.48005 11.4864 3.63338C12.9331 4.64005 13.8664 6.21338 14.0597 7.95338C14.0864 8.22005 13.8931 8.46005 13.6264 8.48672C13.6064 8.48672 13.5931 8.48672 13.5731 8.48672Z" fill="#1d4ed8"/>
<path d="M2.4932 8.52013C2.47987 8.52013 2.45987 8.52013 2.44653 8.52013C2.17987 8.49347 1.98653 8.25347 2.0132 7.9868C2.1932 6.2468 3.1132 4.67347 4.54653 3.66013C4.75987 3.5068 5.06653 3.56013 5.21987 3.77347C5.3732 3.99347 5.31987 4.29347 5.10653 4.4468C3.90653 5.30013 3.12653 6.62013 2.97987 8.08013C2.9532 8.33347 2.73987 8.52013 2.4932 8.52013Z" fill="#1d4ed8"/>
<path d="M10.6601 14.0666C9.84007 14.4599 8.96007 14.6599 8.04007 14.6599C7.08007 14.6599 6.16673 14.4466 5.3134 14.0132C5.0734 13.8999 4.98007 13.6066 5.10007 13.3666C5.2134 13.1266 5.50673 13.0332 5.74673 13.1466C6.16673 13.3599 6.6134 13.5066 7.06673 13.5932C7.68007 13.7132 8.30673 13.7199 8.92007 13.6132C9.3734 13.5332 9.82007 13.3932 10.2334 13.1932C10.4801 13.0799 10.7734 13.1732 10.8801 13.4199C11.0001 13.6599 10.9067 13.9532 10.6601 14.0666Z" fill="#1d4ed8"/>
<path d="M8.03332 1.33984C6.99999 1.33984 6.15332 2.17984 6.15332 3.21984C6.15332 4.25984 6.99332 5.09984 8.03332 5.09984C9.07332 5.09984 9.91332 4.25984 9.91332 3.21984C9.91332 2.17984 9.07332 1.33984 8.03332 1.33984Z" fill="#1d4ed8"/>
<path d="M3.36633 9.24658C2.33299 9.24658 1.48633 10.0866 1.48633 11.1266C1.48633 12.1666 2.32633 13.0066 3.36633 13.0066C4.40633 13.0066 5.24633 12.1666 5.24633 11.1266C5.24633 10.0866 4.39966 9.24658 3.36633 9.24658Z" fill="#1d4ed8"/>
<path d="M12.6329 9.24658C11.5996 9.24658 10.7529 10.0866 10.7529 11.1266C10.7529 12.1666 11.5929 13.0066 12.6329 13.0066C13.6729 13.0066 14.5129 12.1666 14.5129 11.1266C14.5129 10.0866 13.6729 9.24658 12.6329 9.24658Z" fill="#1d4ed8"/>
</svg>
